<svg width="32" height="32" viewBox="0 0 32 32" fill="none" xmlns="http://www.w3.org/2000/svg">
  <!-- dark rounded background -->
  <rect width="32" height="32" rx="7" fill="#2C1E16"/>
  <!-- dancer/V figure — paths extracted from logo, scaled & centred -->
  <g transform="translate(5,3) scale(1.182) translate(-54,-34)">
    <!-- dancer body -->
    <path d="M71.8798 35.6352C71.49 35.7322 71.2569 36.0096 71.0846 36.347C70.9598 36.5905 70.8371 36.8368 70.7431 37.0931C70.5316 37.6716 70.2034 38.1459 69.6692 38.4753C69.5041 38.5763 69.3402 38.5942 69.213 38.5C68.8092 38.1998 68.4422 38.2936 68.0828 38.5591C67.6146 38.9052 67.1476 39.2526 66.6934 39.6163C66.5315 39.746 66.3776 39.7724 66.1844 39.7356C65.8826 39.6785 65.5783 39.6194 65.2725 39.6027C64.9286 39.5831 64.6875 39.8546 64.7295 40.1967C64.7483 40.3492 64.8159 40.4981 64.8767 40.6419C65.0046 40.9437 65.1501 41.2387 65.2741 41.5429C65.472 42.0288 65.4728 42.5202 65.2629 43.0025C65.0834 43.4165 64.8763 43.8189 64.7047 44.2365C64.4952 44.7459 64.0594 45.0609 63.632 45.2985C63.0851 45.6019 62.459 45.7839 61.8481 45.9452C61.0636 46.1532 60.3 46.0614 59.6775 45.4809C59.3844 45.2078 59.1121 44.8984 58.8898 44.5655C58.468 43.9323 57.9023 43.5103 57.1922 43.2732C56.7852 43.1374 56.4909 42.8815 56.3078 42.4979C56.0687 41.9977 55.7401 41.5621 55.3671 41.1569C55.1324 40.9022 54.7321 40.883 54.4551 41.113V41.6487C54.5346 41.7972 54.6054 41.9509 54.6954 42.0931C54.8857 42.3941 55.0764 42.6959 55.2839 42.9845C55.8364 43.7527 56.3134 44.5427 56.6009 45.4677C57.0003 46.7525 57.5205 48 57.9926 49.2616C58.3737 50.2812 58.7427 51.306 59.1489 52.3153C59.5447 53.2998 59.9649 54.2751 60.4063 55.2396C60.7166 55.9159 61.6873 56.0848 62.2343 55.5906C62.5773 55.2812 62.7464 54.8672 62.9064 54.4512C63.5573 52.7505 64.2022 51.0469 64.8507 49.345C65.7902 46.881 66.7686 44.4329 68.0256 42.1094C68.3894 41.4359 68.7073 40.7349 69.2054 40.1388C69.8675 39.3468 70.6664 38.718 71.5144 38.1447C72.0593 37.7766 72.3952 37.2476 72.6135 36.646C72.7834 36.1781 72.5543 35.804 72.0697 35.6767C72.0325 35.6675 71.9978 35.6491 71.9618 35.6352H71.8798Z" fill="#C1875A"/>
    <!-- dot above dancer -->
    <path d="M65.5958 35.6406C65.6014 35.8981 66.0248 36.2969 66.2874 36.2929C66.6401 36.287 67.0347 35.9348 67.0287 35.631C67.0223 35.3392 66.6189 34.9763 66.3002 34.9763C66.0216 34.9767 65.5898 35.3839 65.5958 35.6406Z" fill="#C1875A"/>
  </g>
</svg>
